<mxfile modified="2023-09-30T08:22:44.637Z" host="app.diagrams.net" agent="Mozilla/5.0 (X11; Ubuntu; Linux x86_64; rv:109.0) Gecko/20100101 Firefox/117.0" etag="a5seX2EYbO1ofRB4VvYF" version="21.6.5" type="github">
  <diagram id="WI9T0HZ2pTsCkuznbFz-" name="Page-1">
    <mxGraphModel dx="2074" dy="1087" grid="1" gridSize="10" guides="1" tooltips="1" connect="1" arrows="1" fold="1" page="1" pageScale="1" pageWidth="827" pageHeight="1169" math="0" shadow="0">
      <root>
        <mxCell id="0" />
        <mxCell id="1" parent="0" />
        <mxCell id="AcxdMaKK0mU5kZiv2lnr-42" value="push branch" style="edgeStyle=elbowEdgeStyle;rounded=0;orthogonalLoop=1;jettySize=auto;elbow=vertical;html=1;strokeColor=#6C8EBF;fillColor=#dae8fc;strokeWidth=3;" parent="1" source="T2G_gCxujwEkqVyNhj3W-3" target="AcxdMaKK0mU5kZiv2lnr-31" edge="1">
          <mxGeometry relative="1" as="geometry">
            <mxPoint x="80" y="700" as="sourcePoint" />
            <mxPoint x="90" y="454.2" as="targetPoint" />
            <Array as="points">
              <mxPoint x="90" y="580.7" />
            </Array>
          </mxGeometry>
        </mxCell>
        <mxCell id="T2G_gCxujwEkqVyNhj3W-23" style="edgeStyle=orthogonalEdgeStyle;curved=1;rounded=0;orthogonalLoop=1;jettySize=auto;html=1;strokeColor=#6C8EBF;strokeWidth=3;" edge="1" parent="1" source="T2G_gCxujwEkqVyNhj3W-11" target="AcxdMaKK0mU5kZiv2lnr-31">
          <mxGeometry relative="1" as="geometry">
            <Array as="points">
              <mxPoint x="340" y="404" />
            </Array>
          </mxGeometry>
        </mxCell>
        <mxCell id="T2G_gCxujwEkqVyNhj3W-24" value="&lt;div&gt;merge&amp;nbsp;&lt;/div&gt;&lt;div&gt;branch sur&lt;/div&gt;&lt;div&gt;&amp;nbsp;main&lt;/div&gt;" style="edgeLabel;html=1;align=center;verticalAlign=middle;resizable=0;points=[];" vertex="1" connectable="0" parent="T2G_gCxujwEkqVyNhj3W-23">
          <mxGeometry x="-0.3243" y="20" relative="1" as="geometry">
            <mxPoint as="offset" />
          </mxGeometry>
        </mxCell>
        <mxCell id="T2G_gCxujwEkqVyNhj3W-42" style="edgeStyle=orthogonalEdgeStyle;curved=1;rounded=0;orthogonalLoop=1;jettySize=auto;html=1;exitX=1;exitY=0.25;exitDx=0;exitDy=0;entryX=-0.017;entryY=0.365;entryDx=0;entryDy=0;entryPerimeter=0;dashed=1;" edge="1" parent="1" source="AcxdMaKK0mU5kZiv2lnr-31" target="T2G_gCxujwEkqVyNhj3W-40">
          <mxGeometry relative="1" as="geometry" />
        </mxCell>
        <mxCell id="T2G_gCxujwEkqVyNhj3W-43" value="Text" style="edgeLabel;html=1;align=center;verticalAlign=middle;resizable=0;points=[];" vertex="1" connectable="0" parent="T2G_gCxujwEkqVyNhj3W-42">
          <mxGeometry x="0.4813" y="-49" relative="1" as="geometry">
            <mxPoint as="offset" />
          </mxGeometry>
        </mxCell>
        <mxCell id="AcxdMaKK0mU5kZiv2lnr-31" value="GitHub" style="shape=image;verticalLabelPosition=bottom;labelBackgroundColor=#ffffff;verticalAlign=top;aspect=fixed;imageAspect=0;image=data:image/svg+xml,PHN2ZyB4bWxuczpjYz0iaHR0cDovL2NyZWF0aXZlY29tbW9ucy5vcmcvbnMjIiB4bWxuczpkYz0iaHR0cDovL3B1cmwub3JnL2RjL2VsZW1lbnRzLzEuMS8iIHhtbG5zOmlua3NjYXBlPSJodHRwOi8vd3d3Lmlua3NjYXBlLm9yZy9uYW1lc3BhY2VzL2lua3NjYXBlIiB4bWxuczpyZGY9Imh0dHA6Ly93d3cudzMub3JnLzE5OTkvMDIvMjItcmRmLXN5bnRheC1ucyMiIHhtbG5zOnNvZGlwb2RpPSJodHRwOi8vc29kaXBvZGkuc291cmNlZm9yZ2UubmV0L0RURC9zb2RpcG9kaS0wLmR0ZCIgeG1sbnM6c3ZnPSJodHRwOi8vd3d3LnczLm9yZy8yMDAwL3N2ZyIgeG1sbnM9Imh0dHA6Ly93d3cudzMub3JnLzIwMDAvc3ZnIiB4bWxuczp4bGluaz0iaHR0cDovL3d3dy53My5vcmcvMTk5OS94bGluayIgdmVyc2lvbj0iMS4xIiBpZD0ic3ZnMTc1NjcxIiBpbmtzY2FwZTp2ZXJzaW9uPSIwLjkyLjMgKDI0MDU1NDYsIDIwMTgtMDMtMTEpIiBzb2RpcG9kaTpkb2NuYW1lPSJnaXRodWIuc3ZnIiB4PSIwcHgiIHk9IjBweCIgdmlld0JveD0iMCAwIDQ1LjI3IDQ1LjI5IiBzdHlsZT0iZW5hYmxlLWJhY2tncm91bmQ6bmV3IDAgMCA0NS4yNyA0NS4yOTsiIHhtbDpzcGFjZT0icHJlc2VydmUiPiYjeGE7PHNvZGlwb2RpOm5hbWVkdmlldyBib3JkZXJjb2xvcj0iIzY2NjY2NiIgYm9yZGVyb3BhY2l0eT0iMSIgZml0LW1hcmdpbi1ib3R0b209IjAiIGZpdC1tYXJnaW4tbGVmdD0iMCIgZml0LW1hcmdpbi1yaWdodD0iMCIgZml0LW1hcmdpbi10b3A9IjAiIGdyaWR0b2xlcmFuY2U9IjEwIiBndWlkZXRvbGVyYW5jZT0iMTAiIGlkPSJuYW1lZHZpZXcxNzU2NzMiIGlua3NjYXBlOmN1cnJlbnQtbGF5ZXI9InN2ZzE3NTY3MSIgaW5rc2NhcGU6Y3g9IjMwLjE3ODAyNSIgaW5rc2NhcGU6Y3k9IjMwLjE5NDMxOSIgaW5rc2NhcGU6cGFnZW9wYWNpdHk9IjAiIGlua3NjYXBlOnBhZ2VzaGFkb3c9IjIiIGlua3NjYXBlOndpbmRvdy1oZWlnaHQ9IjEwMTciIGlua3NjYXBlOndpbmRvdy1tYXhpbWl6ZWQ9IjEiIGlua3NjYXBlOndpbmRvdy13aWR0aD0iMTkyMCIgaW5rc2NhcGU6d2luZG93LXg9Ii04IiBpbmtzY2FwZTp3aW5kb3cteT0iLTgiIGlua3NjYXBlOnpvb209IjEwLjA5NTE1OCIgb2JqZWN0dG9sZXJhbmNlPSIxMCIgcGFnZWNvbG9yPSIjZmZmZmZmIiBzaG93Z3JpZD0iZmFsc2UiPiYjeGE7CTwvc29kaXBvZGk6bmFtZWR2aWV3PiYjeGE7PGcgaWQ9ImcxNzU2NjkiIHRyYW5zZm9ybT0idHJhbnNsYXRlKC05LjU2MjU0MTcsLTkuNTYxMzEpIj4mI3hhOwk8dGl0bGUgaWQ9InRpdGxlMTc1NjU5Ij5QYWdlLTE8L3RpdGxlPiYjeGE7CTxnIGlkPSJncm91cDIyNTAtMSIgdHJhbnNmb3JtPSJ0cmFuc2xhdGUoOS41NjMwOCwtOS4zNzg2OSkiPiYjeGE7CQk8dGl0bGUgaWQ9InRpdGxlMTc1NjYxIj5HaXRIdWI8L3RpdGxlPiYjeGE7CQk8ZyBpZD0ic2hhcGUyMjUxLTIiPiYjeGE7CQkJPHRpdGxlIGlkPSJ0aXRsZTE3NTY2MyI+U2hlZXQuMjI1MTwvdGl0bGU+JiN4YTsJCQk8cGF0aCBpZD0icGF0aDE3NTY2NSIgaW5rc2NhcGU6Y29ubmVjdG9yLWN1cnZhdHVyZT0iMCIgZD0iTTIyLjYzLDE4Ljk0QzEwLjE0LDE4Ljk0LDAsMjkuMzMsMCw0Mi4xNSAgICAgYy0wLjA3LDkuODksNi4xNSwxOC43MywxNS40OCwyMi4wMWMxLjEzLDAuMjIsMS41NC0wLjUsMS41NC0xLjExYzAtMC42MiwwLTIuMDEsMC0zLjk1Yy02LjI5LDEuNDEtNy42Mi0zLjExLTcuNjItMy4xMSAgICAgYy0xLjAzLTIuNjgtMi41MS0zLjQtMi41MS0zLjRjLTIuMDYtMS40MSwwLjE1LTEuNDEsMC4xNS0xLjQxYzIuMjcsMC4xNiwzLjQ3LDIuMzksMy40NywyLjM5YzIuMDIsMy41NCw1LjMsMi41Miw2LjU4LDEuOTMgICAgIGMwLjEtMS4xNywwLjYtMi4yNiwxLjQyLTMuMUMxMy40OCw1MS44MSw4LjIsNDkuODIsOC4yLDQwLjkyYy0wLjA0LTIuMjksMC43OS00LjUxLDIuMzItNi4yMmMtMC42OS0yLTAuNjEtNC4xOSwwLjIyLTYuMTQgICAgIGMwLDAsMS45MS0wLjYyLDYuMjMsMi40YzMuNy0xLjA0LDcuNjItMS4wNCwxMS4zMiwwYzQuMzItMyw2LjIyLTIuMzcsNi4yMi0yLjM3YzAuODMsMS45NSwwLjkxLDQuMTQsMC4yMiw2LjE0ICAgICBjMS41MywxLjcsMi4zNywzLjkzLDIuMzMsNi4yMmMwLDguOTEtNS4yOSwxMC44OC0xMC4zMywxMS40NWMwLjgxLDAuNzEsMS41MywyLjEyLDEuNTMsNC4zYzAsMy4xMSwwLDUuNjEsMCw2LjM3ICAgICBjMCwwLjYyLDAuNDEsMS4zNCwxLjU2LDEuMTJjOS4zMy0zLjMsMTUuNTMtMTIuMTUsMTUuNDUtMjIuMDRDNDUuMjcsMjkuMzMsMzUuMTMsMTguOTQsMjIuNjMsMTguOTR6Ii8+JiN4YTsJCTwvZz4mI3hhOwk8L2c+JiN4YTs8L2c+JiN4YTs8L3N2Zz4=;spacingTop=4;" parent="1" vertex="1">
          <mxGeometry x="115" y="373.5" width="60" height="60" as="geometry" />
        </mxCell>
        <mxCell id="RLjyjs_sm2IHfBNOWAbh-4" value="1" style="ellipse;whiteSpace=wrap;html=1;aspect=fixed;fillColor=#4D9900;strokeColor=none;labelBackgroundColor=none;" parent="1" vertex="1">
          <mxGeometry x="80" y="547.5" width="23" height="23" as="geometry" />
        </mxCell>
        <mxCell id="qhazRgXepDI2F2iA60wV-1" value="" style="rounded=0;whiteSpace=wrap;html=1;fillColor=#EAEDED;fontSize=22;fontColor=#FFFFFF;strokeColor=none;labelBackgroundColor=none;" parent="1" vertex="1">
          <mxGeometry x="1000" y="162" width="539" height="843" as="geometry" />
        </mxCell>
        <mxCell id="qhazRgXepDI2F2iA60wV-11" value="&lt;span&gt;Lorem ipsum dolor sit amet, consectetur adipiscing elit, sed do eiusmod tempor incididunt ut labore et dolore magna aliqua. Ut enim ad minim veniam, quis nostrud exercitation ullamco laboris nisi ut aliquip ex ea commodo consequat. Duis aute irure dolor in reprehenderit in voluptate velit esse cillum dolore eu fugiat nulla pariatur. Excepteur sint occaecat cupidatat non proident, sunt in culpa qui officia deserunt mollit anim id est laborum.&lt;/span&gt;&lt;br&gt;" style="text;html=1;align=left;verticalAlign=top;spacingTop=-4;fontSize=14;labelBackgroundColor=none;whiteSpace=wrap;" parent="1" vertex="1">
          <mxGeometry x="1069.5" y="173.5" width="449" height="118" as="geometry" />
        </mxCell>
        <mxCell id="qhazRgXepDI2F2iA60wV-12" value="&lt;span&gt;Lorem ipsum dolor sit amet, consectetur adipiscing elit, sed do eiusmod tempor incididunt ut labore et dolore magna aliqua. Ut enim ad minim veniam, quis nostrud exercitation ullamco laboris nisi ut aliquip ex ea commodo consequat. Duis aute irure dolor in reprehenderit in voluptate velit esse cillum dolore eu fugiat nulla pariatur. Excepteur sint occaecat cupidatat non proident, sunt in culpa qui officia deserunt mollit anim id est laborum.&lt;/span&gt;&lt;br&gt;" style="text;html=1;align=left;verticalAlign=top;spacingTop=-4;fontSize=14;labelBackgroundColor=none;whiteSpace=wrap;" parent="1" vertex="1">
          <mxGeometry x="1068.5" y="296.5" width="450" height="115" as="geometry" />
        </mxCell>
        <mxCell id="qhazRgXepDI2F2iA60wV-13" value="&lt;span&gt;Lorem ipsum dolor sit amet, consectetur adipiscing elit, sed do eiusmod tempor incididunt ut labore et dolore magna aliqua. Ut enim ad minim veniam, quis nostrud exercitation ullamco laboris nisi ut aliquip ex ea commodo consequat. Duis aute irure dolor in reprehenderit in voluptate velit esse cillum dolore eu fugiat nulla pariatur. Excepteur sint occaecat cupidatat non proident, sunt in culpa qui officia deserunt mollit anim id est laborum.&lt;/span&gt;&lt;br&gt;" style="text;html=1;align=left;verticalAlign=top;spacingTop=-4;fontSize=14;labelBackgroundColor=none;whiteSpace=wrap;" parent="1" vertex="1">
          <mxGeometry x="1068.5" y="414.5" width="450" height="117" as="geometry" />
        </mxCell>
        <mxCell id="qhazRgXepDI2F2iA60wV-14" value="&lt;span&gt;Lorem ipsum dolor sit amet, consectetur adipiscing elit, sed do eiusmod tempor incididunt ut labore et dolore magna aliqua. Ut enim ad minim veniam, quis nostrud exercitation ullamco laboris nisi ut aliquip ex ea commodo consequat. Duis aute irure dolor in reprehenderit in voluptate velit esse cillum dolore eu fugiat nulla pariatur. Excepteur sint occaecat cupidatat non proident, sunt in culpa qui officia deserunt mollit anim id est laborum.&lt;/span&gt;&lt;br&gt;" style="text;html=1;align=left;verticalAlign=top;spacingTop=-4;fontSize=14;labelBackgroundColor=none;whiteSpace=wrap;" parent="1" vertex="1">
          <mxGeometry x="1068.5" y="530.5" width="450" height="121" as="geometry" />
        </mxCell>
        <mxCell id="qhazRgXepDI2F2iA60wV-15" value="&lt;span&gt;Lorem ipsum dolor sit amet, consectetur adipiscing elit, sed do eiusmod tempor incididunt ut labore et dolore magna aliqua. Ut enim ad minim veniam, quis nostrud exercitation ullamco laboris nisi ut aliquip ex ea commodo consequat. Duis aute irure dolor in reprehenderit in voluptate velit esse cillum dolore eu fugiat nulla pariatur. Excepteur sint occaecat cupidatat non proident, sunt in culpa qui officia deserunt mollit anim id est laborum.&lt;/span&gt;&lt;br&gt;" style="text;html=1;align=left;verticalAlign=top;spacingTop=-4;fontSize=14;labelBackgroundColor=none;whiteSpace=wrap;" parent="1" vertex="1">
          <mxGeometry x="1069.5" y="647.5" width="449" height="114" as="geometry" />
        </mxCell>
        <mxCell id="qhazRgXepDI2F2iA60wV-16" value="&lt;span&gt;Lorem ipsum dolor sit amet, consectetur adipiscing elit, sed do eiusmod tempor incididunt ut labore et dolore magna aliqua. Ut enim ad minim veniam, quis nostrud exercitation ullamco laboris nisi ut aliquip ex ea commodo consequat. Duis aute irure dolor in reprehenderit in voluptate velit esse cillum dolore eu fugiat nulla pariatur. Excepteur sint occaecat cupidatat non proident, sunt in culpa qui officia deserunt mollit anim id est laborum.&lt;/span&gt;&lt;br&gt;" style="text;html=1;align=left;verticalAlign=top;spacingTop=-4;fontSize=14;labelBackgroundColor=none;whiteSpace=wrap;" parent="1" vertex="1">
          <mxGeometry x="1069.5" y="763.5" width="450" height="118" as="geometry" />
        </mxCell>
        <mxCell id="qhazRgXepDI2F2iA60wV-17" value="&lt;span&gt;Lorem ipsum dolor sit amet, consectetur adipiscing elit, sed do eiusmod tempor incididunt ut labore et dolore magna aliqua. Ut enim ad minim veniam, quis nostrud exercitation ullamco laboris nisi ut aliquip ex ea commodo consequat. Duis aute irure dolor in reprehenderit in voluptate velit esse cillum dolore eu fugiat nulla pariatur. Excepteur sint occaecat cupidatat non proident, sunt in culpa qui officia deserunt mollit anim id est laborum.&lt;/span&gt;&lt;br&gt;" style="text;html=1;align=left;verticalAlign=top;spacingTop=-4;fontSize=14;labelBackgroundColor=none;whiteSpace=wrap;" parent="1" vertex="1">
          <mxGeometry x="1069.5" y="878.5" width="449" height="113" as="geometry" />
        </mxCell>
        <mxCell id="qhazRgXepDI2F2iA60wV-22" value="1" style="ellipse;whiteSpace=wrap;html=1;aspect=fixed;fillColor=#4D9900;strokeColor=none;labelBackgroundColor=none;" parent="1" vertex="1">
          <mxGeometry x="1020.0000000000001" y="180" width="23" height="23" as="geometry" />
        </mxCell>
        <mxCell id="qhazRgXepDI2F2iA60wV-23" value="2" style="ellipse;whiteSpace=wrap;html=1;aspect=fixed;fillColor=#4D9900;strokeColor=none;labelBackgroundColor=none;" parent="1" vertex="1">
          <mxGeometry x="1020.0000000000001" y="301" width="23" height="23" as="geometry" />
        </mxCell>
        <mxCell id="qhazRgXepDI2F2iA60wV-24" value="3" style="ellipse;whiteSpace=wrap;html=1;aspect=fixed;fillColor=#4D9900;strokeColor=none;labelBackgroundColor=none;" parent="1" vertex="1">
          <mxGeometry x="1020.0000000000001" y="422" width="23" height="23" as="geometry" />
        </mxCell>
        <mxCell id="qhazRgXepDI2F2iA60wV-25" value="4" style="ellipse;whiteSpace=wrap;html=1;aspect=fixed;fillColor=#4D9900;strokeColor=none;labelBackgroundColor=none;" parent="1" vertex="1">
          <mxGeometry x="1019.9999999999997" y="539" width="23" height="23" as="geometry" />
        </mxCell>
        <mxCell id="qhazRgXepDI2F2iA60wV-26" value="5" style="ellipse;whiteSpace=wrap;html=1;aspect=fixed;fillColor=#4D9900;strokeColor=none;labelBackgroundColor=none;" parent="1" vertex="1">
          <mxGeometry x="1019.9999999999997" y="651.5" width="23" height="23" as="geometry" />
        </mxCell>
        <mxCell id="qhazRgXepDI2F2iA60wV-27" value="6" style="ellipse;whiteSpace=wrap;html=1;aspect=fixed;fillColor=#4D9900;strokeColor=none;labelBackgroundColor=none;" parent="1" vertex="1">
          <mxGeometry x="1019.9999999999997" y="773" width="23" height="23" as="geometry" />
        </mxCell>
        <mxCell id="qhazRgXepDI2F2iA60wV-28" value="7" style="ellipse;whiteSpace=wrap;html=1;aspect=fixed;fillColor=#4D9900;strokeColor=none;labelBackgroundColor=none;" parent="1" vertex="1">
          <mxGeometry x="1020.0000000000001" y="881.5" width="23" height="23" as="geometry" />
        </mxCell>
        <mxCell id="T2G_gCxujwEkqVyNhj3W-3" value="&lt;span style=&quot;font-size: 12px;&quot;&gt;Développeur A&lt;br style=&quot;font-size: 12px;&quot;&gt;&lt;/span&gt;" style="image;points=[];aspect=fixed;html=1;align=center;shadow=0;dashed=0;image=img/lib/allied_telesis/computer_and_terminals/Personal_Computer_with_Server.svg;fontSize=12;fontStyle=0" vertex="1" parent="1">
          <mxGeometry x="175" y="667.5" width="62.5" height="62.5" as="geometry" />
        </mxCell>
        <mxCell id="T2G_gCxujwEkqVyNhj3W-9" value="&lt;b style=&quot;font-size: 12px;&quot;&gt;&lt;font color=&quot;#ff0000&quot;&gt;tests KO&lt;/font&gt;&lt;br&gt;&lt;/b&gt;" style="edgeStyle=orthogonalEdgeStyle;rounded=0;orthogonalLoop=1;jettySize=auto;html=1;entryX=0.591;entryY=-0.023;entryDx=0;entryDy=0;entryPerimeter=0;strokeWidth=3;strokeColor=#FF0000;" edge="1" parent="1" source="T2G_gCxujwEkqVyNhj3W-6" target="T2G_gCxujwEkqVyNhj3W-3">
          <mxGeometry relative="1" as="geometry" />
        </mxCell>
        <mxCell id="T2G_gCxujwEkqVyNhj3W-12" value="&lt;font style=&quot;font-size: 12px;&quot; color=&quot;#00cc00&quot;&gt;&lt;b&gt;Tests OK&lt;/b&gt;&lt;br&gt;&lt;/font&gt;" style="edgeStyle=orthogonalEdgeStyle;rounded=0;orthogonalLoop=1;jettySize=auto;html=1;entryX=0.008;entryY=0.616;entryDx=0;entryDy=0;entryPerimeter=0;strokeColor=#00CC00;strokeWidth=3;" edge="1" parent="1" source="T2G_gCxujwEkqVyNhj3W-6" target="T2G_gCxujwEkqVyNhj3W-11">
          <mxGeometry relative="1" as="geometry" />
        </mxCell>
        <mxCell id="T2G_gCxujwEkqVyNhj3W-6" value="Github jobs" style="sketch=0;pointerEvents=1;shadow=0;dashed=0;html=1;strokeColor=none;fillColor=#505050;labelPosition=center;verticalLabelPosition=bottom;verticalAlign=top;outlineConnect=0;align=center;shape=mxgraph.office.concepts.settings_office_365;" vertex="1" parent="1">
          <mxGeometry x="120" y="487" width="70" height="53" as="geometry" />
        </mxCell>
        <mxCell id="T2G_gCxujwEkqVyNhj3W-11" value="&lt;span style=&quot;font-size: 12px;&quot;&gt;Développeur B&lt;br&gt;&lt;/span&gt;" style="image;points=[];aspect=fixed;html=1;align=center;shadow=0;dashed=0;image=img/lib/allied_telesis/computer_and_terminals/Personal_Computer_with_Server.svg;fontSize=12;fontStyle=0" vertex="1" parent="1">
          <mxGeometry x="300" y="643.75" width="70.5" height="70.5" as="geometry" />
        </mxCell>
        <mxCell id="T2G_gCxujwEkqVyNhj3W-14" value="2" style="ellipse;whiteSpace=wrap;html=1;aspect=fixed;fillColor=#4D9900;strokeColor=none;labelBackgroundColor=none;" vertex="1" parent="1">
          <mxGeometry x="232" y="564.5" width="23" height="23" as="geometry" />
        </mxCell>
        <mxCell id="T2G_gCxujwEkqVyNhj3W-25" value="3" style="ellipse;whiteSpace=wrap;html=1;aspect=fixed;fillColor=#4D9900;strokeColor=none;labelBackgroundColor=none;" vertex="1" parent="1">
          <mxGeometry x="280" y="445.5" width="23" height="23" as="geometry" />
        </mxCell>
        <mxCell id="T2G_gCxujwEkqVyNhj3W-26" value="" style="image;sketch=0;aspect=fixed;html=1;points=[];align=center;fontSize=12;image=img/lib/mscae/Docker.svg;" vertex="1" parent="1">
          <mxGeometry x="145.28" y="781.5" width="121.95" height="100" as="geometry" />
        </mxCell>
        <mxCell id="T2G_gCxujwEkqVyNhj3W-31" value="" style="whiteSpace=wrap;html=1;rounded=1;shadow=1;" vertex="1" parent="1">
          <mxGeometry x="470" y="235.5" width="120" height="210" as="geometry" />
        </mxCell>
        <mxCell id="T2G_gCxujwEkqVyNhj3W-27" value="netlify" style="shape=image;html=1;verticalAlign=top;verticalLabelPosition=bottom;labelBackgroundColor=#ffffff;imageAspect=0;aspect=fixed;image=https://cdn2.iconfinder.com/data/icons/boxicons-logos/24/bxl-netlify-128.png" vertex="1" parent="1">
          <mxGeometry x="494" y="247" width="70" height="70" as="geometry" />
        </mxCell>
        <mxCell id="T2G_gCxujwEkqVyNhj3W-28" value="Render" style="image;aspect=fixed;html=1;points=[];align=center;fontSize=12;image=img/lib/azure2/mixed_reality/Remote_Rendering.svg;" vertex="1" parent="1">
          <mxGeometry x="496" y="367" width="68" height="48" as="geometry" />
        </mxCell>
        <mxCell id="T2G_gCxujwEkqVyNhj3W-32" value="Integration env" style="text;strokeColor=none;align=center;fillColor=none;html=1;verticalAlign=middle;whiteSpace=wrap;rounded=0;" vertex="1" parent="1">
          <mxGeometry x="500" y="457" width="60" height="30" as="geometry" />
        </mxCell>
        <mxCell id="T2G_gCxujwEkqVyNhj3W-33" style="edgeStyle=orthogonalEdgeStyle;curved=1;rounded=0;orthogonalLoop=1;jettySize=auto;html=1;exitX=0.5;exitY=0;exitDx=0;exitDy=0;entryX=0;entryY=0.5;entryDx=0;entryDy=0;strokeWidth=2;strokeColor=#6C8EBF;" edge="1" parent="1" source="AcxdMaKK0mU5kZiv2lnr-31" target="T2G_gCxujwEkqVyNhj3W-27">
          <mxGeometry relative="1" as="geometry" />
        </mxCell>
        <mxCell id="T2G_gCxujwEkqVyNhj3W-36" value="&lt;div&gt;Deploy front-end&lt;/div&gt;" style="edgeLabel;html=1;align=center;verticalAlign=middle;resizable=0;points=[];" vertex="1" connectable="0" parent="T2G_gCxujwEkqVyNhj3W-33">
          <mxGeometry x="0.3208" relative="1" as="geometry">
            <mxPoint as="offset" />
          </mxGeometry>
        </mxCell>
        <mxCell id="T2G_gCxujwEkqVyNhj3W-35" style="edgeStyle=orthogonalEdgeStyle;curved=1;rounded=0;orthogonalLoop=1;jettySize=auto;html=1;exitX=0.5;exitY=0;exitDx=0;exitDy=0;strokeWidth=2;strokeColor=#6C8EBF;" edge="1" parent="1" source="AcxdMaKK0mU5kZiv2lnr-31" target="T2G_gCxujwEkqVyNhj3W-28">
          <mxGeometry relative="1" as="geometry">
            <Array as="points">
              <mxPoint x="145" y="380" />
              <mxPoint x="470" y="380" />
              <mxPoint x="470" y="414" />
            </Array>
          </mxGeometry>
        </mxCell>
        <mxCell id="T2G_gCxujwEkqVyNhj3W-37" value="Deploy backend" style="edgeLabel;html=1;align=center;verticalAlign=middle;resizable=0;points=[];" vertex="1" connectable="0" parent="T2G_gCxujwEkqVyNhj3W-35">
          <mxGeometry x="0.0794" relative="1" as="geometry">
            <mxPoint x="1" as="offset" />
          </mxGeometry>
        </mxCell>
        <mxCell id="T2G_gCxujwEkqVyNhj3W-38" value="4" style="ellipse;whiteSpace=wrap;html=1;aspect=fixed;fillColor=#4D9900;strokeColor=none;labelBackgroundColor=none;" vertex="1" parent="1">
          <mxGeometry x="323.74999999999955" y="330" width="23" height="23" as="geometry" />
        </mxCell>
        <mxCell id="T2G_gCxujwEkqVyNhj3W-40" value="" style="whiteSpace=wrap;html=1;rounded=1;shadow=1;dashed=1;" vertex="1" parent="1">
          <mxGeometry x="470" y="504.25" width="120" height="210" as="geometry" />
        </mxCell>
        <mxCell id="T2G_gCxujwEkqVyNhj3W-39" value="" style="image;points=[];aspect=fixed;html=1;align=center;shadow=0;dashed=0;image=img/lib/allied_telesis/storage/Datacenter_Server_Half_Rack_ToR.svg;" vertex="1" parent="1">
          <mxGeometry x="485.9" y="555.95" width="88.2" height="114.6" as="geometry" />
        </mxCell>
        <mxCell id="T2G_gCxujwEkqVyNhj3W-41" value="Recette env" style="text;strokeColor=none;align=center;fillColor=none;html=1;verticalAlign=middle;whiteSpace=wrap;rounded=0;" vertex="1" parent="1">
          <mxGeometry x="499" y="730" width="60" height="30" as="geometry" />
        </mxCell>
        <mxCell id="T2G_gCxujwEkqVyNhj3W-56" style="edgeStyle=orthogonalEdgeStyle;curved=1;rounded=0;orthogonalLoop=1;jettySize=auto;html=1;exitX=0.5;exitY=0;exitDx=0;exitDy=0;entryX=1;entryY=0.5;entryDx=0;entryDy=0;dashed=1;strokeWidth=2;strokeColor=#6C8EBF;" edge="1" parent="1" source="T2G_gCxujwEkqVyNhj3W-31" target="T2G_gCxujwEkqVyNhj3W-31">
          <mxGeometry relative="1" as="geometry">
            <Array as="points">
              <mxPoint x="530" y="216" />
              <mxPoint x="690" y="216" />
              <mxPoint x="690" y="341" />
            </Array>
          </mxGeometry>
        </mxCell>
        <mxCell id="T2G_gCxujwEkqVyNhj3W-57" value="Tests fonctionnels" style="edgeLabel;html=1;align=center;verticalAlign=middle;resizable=0;points=[];" vertex="1" connectable="0" parent="T2G_gCxujwEkqVyNhj3W-56">
          <mxGeometry x="0.2054" y="-3" relative="1" as="geometry">
            <mxPoint y="1" as="offset" />
          </mxGeometry>
        </mxCell>
        <mxCell id="T2G_gCxujwEkqVyNhj3W-58" style="edgeStyle=orthogonalEdgeStyle;curved=1;rounded=0;orthogonalLoop=1;jettySize=auto;html=1;exitX=0.5;exitY=0;exitDx=0;exitDy=0;entryX=1;entryY=0.5;entryDx=0;entryDy=0;dashed=1;strokeWidth=2;strokeColor=#6C8EBF;" edge="1" parent="1">
          <mxGeometry relative="1" as="geometry">
            <mxPoint x="530" y="500" as="sourcePoint" />
            <mxPoint x="590" y="605" as="targetPoint" />
            <Array as="points">
              <mxPoint x="530" y="480" />
              <mxPoint x="690" y="480" />
              <mxPoint x="690" y="605" />
            </Array>
          </mxGeometry>
        </mxCell>
        <mxCell id="T2G_gCxujwEkqVyNhj3W-59" value="Tests fonctionnels" style="edgeLabel;html=1;align=center;verticalAlign=middle;resizable=0;points=[];" vertex="1" connectable="0" parent="T2G_gCxujwEkqVyNhj3W-58">
          <mxGeometry x="0.2054" y="-3" relative="1" as="geometry">
            <mxPoint y="1" as="offset" />
          </mxGeometry>
        </mxCell>
        <mxCell id="T2G_gCxujwEkqVyNhj3W-60" value="" style="image;sketch=0;aspect=fixed;html=1;points=[];align=center;fontSize=12;image=img/lib/mscae/Docker.svg;" vertex="1" parent="1">
          <mxGeometry x="468.02" y="781.5" width="121.95" height="100" as="geometry" />
        </mxCell>
        <mxCell id="T2G_gCxujwEkqVyNhj3W-61" value="5" style="ellipse;whiteSpace=wrap;html=1;aspect=fixed;fillColor=#4D9900;strokeColor=none;labelBackgroundColor=none;" vertex="1" parent="1">
          <mxGeometry x="669.9999999999995" y="235.5" width="23" height="23" as="geometry" />
        </mxCell>
        <mxCell id="T2G_gCxujwEkqVyNhj3W-62" value="6" style="ellipse;whiteSpace=wrap;html=1;aspect=fixed;fillColor=#4D9900;strokeColor=none;labelBackgroundColor=none;" vertex="1" parent="1">
          <mxGeometry x="439.99999999999955" y="481.25" width="23" height="23" as="geometry" />
        </mxCell>
      </root>
    </mxGraphModel>
  </diagram>
</mxfile>
